<svg width="228" height="93" viewBox="0 0 228 93" fill="none" xmlns="http://www.w3.org/2000/svg">
<path d="M61.758 20.4C61.758 20.4 65.118 28.24 66.758 28.24H60.318C61.998 28.24 58.678 20.4 58.678 20.4L58.198 19.28H45.198L44.718 20.4C44.718 20.4 41.438 28.24 43.118 28.24H39.358C40.998 28.24 44.318 20.4 44.318 20.4L52.758 0.239999H53.198L61.758 20.4ZM45.358 18.88H58.038L51.678 3.92L45.358 18.88Z" fill="white"/>
<path d="M88.8898 24.88L88.3298 28.24H67.0898C68.7298 28.24 68.7298 20.56 68.7698 20.44V8.08C68.7298 7.96 68.7298 0.239999 67.0898 0.239999H73.5298C71.8498 0.239999 71.8498 8.08 71.8498 8.08V27.84H80.5298C80.7298 27.84 88.3698 27.8 88.8898 24.88Z" fill="white"/>
<path d="M105.391 0.239999H109.151C107.511 0.239999 102.591 8.08 102.591 8.08L98.2308 15.04V20.4C98.2308 20.4 98.2708 28.24 99.9108 28.24H93.4708C95.1508 28.24 95.1508 20.56 95.1508 20.44V17.08L89.5108 8.08C89.4708 8.04 84.5108 0.239999 82.8708 0.239999H89.3108C87.6308 0.239999 92.5908 8.08 92.5908 8.08L97.3908 15.72L102.151 8.08C102.151 8.08 107.071 0.239999 105.391 0.239999Z" fill="white"/>
<path d="M120.264 0C127.864 0 133.984 5.88 133.984 14.28C133.984 22.68 127.864 28.52 120.264 28.52C112.704 28.52 106.584 22.68 106.584 14.28C106.584 5.88 112.704 0 120.264 0ZM120.264 28.12C126.024 28.12 130.624 22.68 130.624 14.28C130.624 5.88 126.024 0.4 120.264 0.4C114.544 0.4 109.944 5.88 109.944 14.28C109.944 22.68 114.544 28.12 120.264 28.12Z" fill="white"/>
<path d="M158.477 0.279999C156.837 0.279999 156.837 7.84 156.797 8.08V28.24H156.397L138.197 2.8V20.44C138.197 20.68 138.237 28.24 139.877 28.24H136.117C137.757 28.24 137.797 20.44 137.797 20.44V8.12C137.797 8.12 137.757 0.279999 136.117 0.279999H139.477L156.397 23.96V8.12C156.397 8.12 156.397 0.279999 154.717 0.279999H158.477Z" fill="white"/>
<path d="M181.133 20.4C181.133 20.4 184.493 28.24 186.133 28.24H179.693C181.373 28.24 178.053 20.4 178.053 20.4L177.573 19.28H164.573L164.093 20.4C164.093 20.4 160.813 28.24 162.493 28.24H158.733C160.373 28.24 163.693 20.4 163.693 20.4L172.133 0.239999H172.573L181.133 20.4ZM164.733 18.88H177.413L171.053 3.92L164.733 18.88Z" fill="white"/>
<path d="M42.84 80.44C42.84 80.44 48.72 88.24 50.36 88.24H43.92C45.6 88.24 39.76 80.4 39.76 80.4L38.08 78.16C37.6 78.16 37.12 78.16 36.64 78.16H29.92V80.12C34.68 78.04 40.84 79.52 40.84 85.72C40.84 88.52 39.44 92.72 31.32 92.72C25.6 92.72 22.28 91.08 20.4 88.24C20.4 88.24 15.36 80.68 13.68 78.16C12.16 75.88 9.64 72.28 4.76 76.64V80.4C4.76 80.4 4.76 88.24 6.44 88.24H0C1.64 88.24 1.64 80.56 1.68 80.44V68.08C1.64 67.96 1.64 60.28 0 60.28H6.44C4.76 60.28 4.76 68.12 4.76 68.12V76.24C4.8 76.16 4.84 76.12 4.88 76.08L13.24 68.12C13.24 68.12 21.4 60.28 19.72 60.28H23.48C21.84 60.28 13.64 68.08 13.64 68.12L6.68 74.8C12 71.48 14.88 75.16 16.8 78.2C18.36 80.68 23.48 88.24 23.48 88.24C24.72 90.08 26.44 92.32 31.32 92.32C37.64 92.32 37.76 87.4 37.76 85.72C37.76 80.28 33.28 77.76 26.84 82.24V68.08C26.84 67.96 26.84 60.28 25.2 60.28H36.64C44.48 60.28 49.8 63.64 49.8 69.24C49.8 73.72 46.36 76.8 40.88 77.8L42.84 80.44ZM29.92 77.76H36.64C42.52 77.76 46.44 74.52 46.44 69.24C46.44 63.92 42.52 60.68 36.64 60.68H29.92V77.76Z" fill="white"/>
<path d="M73.8797 60.24C72.2397 60.24 72.2397 67.84 72.2397 68.08V81.52C72.2397 83.64 71.9197 88.52 63.8397 88.52C55.9997 88.52 53.1997 85.44 53.1997 81.52V68.08C53.1597 67.96 53.1597 60.24 51.5197 60.24H57.9597C56.2797 60.24 56.2797 68.08 56.2797 68.08V81.52C56.2797 85.44 58.5197 88.12 63.8397 88.12C69.3997 88.12 71.7997 85.72 71.7997 81.52V68.08C71.7997 68.08 71.7997 60.24 70.1197 60.24H73.8797Z" fill="white"/>
<path d="M99.8659 83.2V83.24H100.266C97.9059 86.44 94.2659 88.52 89.3459 88.52C81.7859 88.52 75.6659 82.68 75.6659 74.28C75.6659 65.88 81.7859 60 89.3459 60C94.8259 60 99.7059 62.92 99.7459 68.12C99.7459 69.32 98.7059 70.36 97.5059 70.36C96.2659 70.36 95.2259 69.32 95.2259 68.12C95.2259 67.84 95.3059 67.6 95.3859 67.36C95.3859 67.32 95.3859 67.32 95.3859 67.28C97.0259 62.88 93.2659 60.4 89.3459 60.4C83.6259 60.4 79.0259 65.88 79.0259 74.28C79.0259 82.64 83.7859 87.4 90.1859 87.4C93.8259 87.4 97.1859 86.16 99.8659 83.2Z" fill="white"/>
<path d="M124.235 80.44C124.235 80.44 124.275 88.24 125.915 88.24H119.475C121.155 88.24 121.155 80.56 121.155 80.44V74.4H106.635V80.4C106.635 80.4 106.635 88.24 108.315 88.24H101.875C103.515 88.24 103.515 80.56 103.555 80.44V68.08C103.515 67.96 103.515 60.28 101.875 60.28H108.315C106.635 60.28 106.635 68.12 106.635 68.12V74H121.155V68.08C121.155 67.96 121.155 60.28 119.475 60.28H125.915C124.275 60.28 124.235 68.12 124.235 68.12V80.44Z" fill="white"/>
<path d="M179.449 74.28C179.449 82.44 173.649 88.24 166.369 88.52C165.489 90.72 163.249 92.72 158.169 92.72C153.129 92.72 150.249 91.08 148.369 88.24C148.369 88.24 143.329 80.68 141.649 78.16C140.129 75.88 137.609 72.28 132.729 76.64V80.4C132.729 80.4 132.729 88.24 134.409 88.24H127.969C129.609 88.24 129.609 80.56 129.649 80.44V68.08C129.609 67.96 129.609 60.28 127.969 60.28H134.409C132.729 60.28 132.729 68.12 132.729 68.12V76.24C132.769 76.16 132.809 76.12 132.849 76.08L141.209 68.12C141.209 68.12 149.369 60.28 147.689 60.28H151.449C149.809 60.28 141.609 68.08 141.609 68.12L134.649 74.8C139.969 71.48 142.849 75.16 144.769 78.2C146.329 80.68 151.449 88.24 151.449 88.24C152.689 90.08 154.129 92.32 158.169 92.32C161.809 92.32 163.089 90.28 163.529 88.36C157.009 87.36 152.009 81.84 152.009 74.28C152.009 65.88 158.169 60 165.729 60C173.329 60 179.449 65.88 179.449 74.28ZM156.329 80.4C157.689 84.4 160.409 87.04 163.649 87.88C163.769 87 163.769 86.24 163.769 85.76C163.769 81.36 160.689 78.96 156.329 80.4ZM166.529 88.08C171.889 87.64 176.089 82.28 176.089 74.24C176.089 65.84 171.489 60.4 165.729 60.4C160.009 60.4 155.369 65.88 155.369 74.24C155.369 76.36 155.689 78.28 156.209 79.96C161.049 78.16 166.849 79.84 166.849 85.72C166.849 86.48 166.769 87.28 166.529 88.08Z" fill="white"/>
<path d="M201.182 60.24H204.942C203.302 60.24 199.982 68.08 199.982 68.08L191.502 88.24H191.102L182.542 68.08C182.542 68.08 179.182 60.24 177.542 60.24H183.982C182.302 60.24 185.622 68.08 185.622 68.08L192.622 84.6L199.582 68.08C199.582 68.08 202.862 60.24 201.182 60.24Z" fill="white"/>
<path d="M222.051 80.4C222.051 80.4 225.411 88.24 227.051 88.24H220.611C222.291 88.24 218.971 80.4 218.971 80.4L218.491 79.28H205.491L205.011 80.4C205.011 80.4 201.731 88.24 203.411 88.24H199.651C201.291 88.24 204.611 80.4 204.611 80.4L213.051 60.24H213.491L222.051 80.4ZM205.651 78.88H218.331L211.971 63.92L205.651 78.88Z" fill="white"/>
</svg>
