<svg width="612" height="53" viewBox="0 0 612 53" fill="none" xmlns="http://www.w3.org/2000/svg">
<path d="M35.84 32.64C35.84 32.64 41.216 45.184 43.84 45.184H33.536C36.224 45.184 30.912 32.64 30.912 32.64L30.144 30.848H9.344L8.576 32.64C8.576 32.64 3.328 45.184 6.016 45.184H0C2.624 45.184 7.936 32.64 7.936 32.64L21.44 0.383999H22.144L35.84 32.64ZM9.6 30.208H29.888L19.712 6.272L9.6 30.208Z" fill="white"/>
<path d="M79.251 39.808L78.355 45.184H44.371C46.995 45.184 46.995 32.896 47.059 32.704V12.928C46.995 12.736 46.995 0.383999 44.371 0.383999H54.675C51.987 0.383999 51.987 12.928 51.987 12.928V44.544H65.875C66.195 44.544 78.419 44.48 79.251 39.808Z" fill="white"/>
<path d="M105.653 0.383999H111.669C109.045 0.383999 101.173 12.928 101.173 12.928L94.1965 24.064V32.64C94.1965 32.64 94.2605 45.184 96.8845 45.184H86.5805C89.2685 45.184 89.2685 32.896 89.2685 32.704V27.328L80.2445 12.928C80.1805 12.864 72.2445 0.383999 69.6205 0.383999H79.9245C77.2365 0.383999 85.1725 12.928 85.1725 12.928L92.8525 25.152L100.468 12.928C100.468 12.928 108.34 0.383999 105.653 0.383999Z" fill="white"/>
<path d="M129.449 0C141.609 0 151.402 9.408 151.402 22.848C151.402 36.288 141.609 45.632 129.449 45.632C117.353 45.632 107.562 36.288 107.562 22.848C107.562 9.408 117.353 0 129.449 0ZM129.449 44.992C138.665 44.992 146.025 36.288 146.025 22.848C146.025 9.408 138.665 0.639999 129.449 0.639999C120.297 0.639999 112.938 9.408 112.938 22.848C112.938 36.288 120.297 44.992 129.449 44.992Z" fill="white"/>
<path d="M190.59 0.447998C187.966 0.447998 187.966 12.544 187.902 12.928V45.184H187.262L158.143 4.48V32.704C158.143 33.088 158.207 45.184 160.831 45.184H154.814C157.438 45.184 157.503 32.704 157.503 32.704V12.992C157.503 12.992 157.438 0.447998 154.814 0.447998H160.191L187.262 38.336V12.992C187.262 12.992 187.262 0.447998 184.574 0.447998H190.59Z" fill="white"/>
<path d="M226.84 32.64C226.84 32.64 232.216 45.184 234.84 45.184H224.536C227.224 45.184 221.912 32.64 221.912 32.64L221.144 30.848H200.344L199.576 32.64C199.576 32.64 194.328 45.184 197.016 45.184H191C193.624 45.184 198.936 32.64 198.936 32.64L212.44 0.383999H213.144L226.84 32.64ZM200.6 30.208H220.888L210.712 6.272L200.6 30.208Z" fill="white"/>
<path d="M316.353 32.704C316.353 32.704 325.76 45.184 328.384 45.184H318.081C320.768 45.184 311.424 32.64 311.424 32.64L308.737 29.056C307.969 29.056 307.201 29.056 306.432 29.056H295.681V32.192C303.297 28.864 313.152 31.232 313.152 41.152C313.152 45.632 310.913 52.352 297.921 52.352C288.768 52.352 283.457 49.728 280.449 45.184C280.449 45.184 272.384 33.088 269.697 29.056C267.264 25.408 263.233 19.648 255.424 26.624V32.64C255.424 32.64 255.424 45.184 258.112 45.184H247.809C250.432 45.184 250.433 32.896 250.497 32.704V12.928C250.433 12.736 250.432 0.447998 247.809 0.447998H258.112C255.424 0.447998 255.424 12.992 255.424 12.992V25.984C255.488 25.856 255.553 25.792 255.617 25.728L268.992 12.992C268.992 12.992 282.048 0.447998 279.361 0.447998H285.376C282.753 0.447998 269.633 12.928 269.633 12.992L258.496 23.68C267.008 18.368 271.617 24.256 274.689 29.12C277.185 33.088 285.376 45.184 285.376 45.184C287.361 48.128 290.112 51.712 297.921 51.712C308.033 51.712 308.225 43.84 308.225 41.152C308.225 32.448 301.057 28.416 290.753 35.584V12.928C290.753 12.736 290.753 0.447998 288.129 0.447998H306.432C318.977 0.447998 327.488 5.824 327.488 14.784C327.488 21.952 321.984 26.88 313.216 28.48L316.353 32.704ZM295.681 28.416H306.432C315.84 28.416 322.112 23.232 322.112 14.784C322.112 6.272 315.84 1.088 306.432 1.088H295.681V28.416Z" fill="white"/>
<path d="M366.016 0.383999C363.392 0.383999 363.392 12.544 363.392 12.928V34.432C363.392 37.824 362.88 45.632 349.952 45.632C337.408 45.632 332.928 40.704 332.928 34.432V12.928C332.864 12.736 332.864 0.383999 330.24 0.383999H340.544C337.856 0.383999 337.856 12.928 337.856 12.928V34.432C337.856 40.704 341.44 44.992 349.952 44.992C358.848 44.992 362.688 41.152 362.688 34.432V12.928C362.688 12.928 362.688 0.383999 360 0.383999H366.016Z" fill="white"/>
<path d="M407.594 37.12V37.184H408.234C404.458 42.304 398.634 45.632 390.762 45.632C378.666 45.632 368.874 36.288 368.874 22.848C368.874 9.408 378.666 0 390.762 0C399.53 0 407.338 4.672 407.402 12.992C407.402 14.912 405.738 16.576 403.818 16.576C401.834 16.576 400.17 14.912 400.17 12.992C400.17 12.544 400.298 12.16 400.426 11.776C400.426 11.712 400.426 11.712 400.426 11.648C403.05 4.608 397.034 0.639999 390.762 0.639999C381.61 0.639999 374.25 9.408 374.25 22.848C374.25 36.224 381.866 43.84 392.106 43.84C397.93 43.84 403.306 41.856 407.594 37.12Z" fill="white"/>
<path d="M446.585 32.704C446.585 32.704 446.648 45.184 449.272 45.184H438.969C441.656 45.184 441.656 32.896 441.656 32.704V23.04H418.424V32.64C418.424 32.64 418.424 45.184 421.112 45.184H410.809C413.432 45.184 413.432 32.896 413.496 32.704V12.928C413.432 12.736 413.432 0.447998 410.809 0.447998H421.112C418.424 0.447998 418.424 12.992 418.424 12.992V22.4H441.656V12.928C441.656 12.736 441.656 0.447998 438.969 0.447998H449.272C446.648 0.447998 446.585 12.992 446.585 12.992V32.704Z" fill="white"/>
<path d="M534.927 22.848C534.927 35.904 525.646 45.184 513.998 45.632C512.59 49.152 509.007 52.352 500.879 52.352C492.815 52.352 488.207 49.728 485.199 45.184C485.199 45.184 477.134 33.088 474.447 29.056C472.014 25.408 467.983 19.648 460.174 26.624V32.64C460.174 32.64 460.174 45.184 462.862 45.184H452.559C455.182 45.184 455.182 32.896 455.246 32.704V12.928C455.182 12.736 455.182 0.447998 452.559 0.447998H462.862C460.174 0.447998 460.174 12.992 460.174 12.992V25.984C460.238 25.856 460.302 25.792 460.366 25.728L473.742 12.992C473.742 12.992 486.798 0.447998 484.111 0.447998H490.126C487.503 0.447998 474.383 12.928 474.383 12.992L463.246 23.68C471.758 18.368 476.367 24.256 479.439 29.12C481.935 33.088 490.126 45.184 490.126 45.184C492.111 48.128 494.415 51.712 500.879 51.712C506.703 51.712 508.75 48.448 509.454 45.376C499.022 43.776 491.022 34.944 491.022 22.848C491.022 9.408 500.878 0 512.974 0C525.134 0 534.927 9.408 534.927 22.848ZM497.935 32.64C500.111 39.04 504.463 43.264 509.647 44.608C509.839 43.2 509.839 41.984 509.839 41.216C509.839 34.176 504.911 30.336 497.935 32.64ZM514.255 44.928C522.831 44.224 529.55 35.648 529.55 22.784C529.55 9.344 522.19 0.639999 512.974 0.639999C503.822 0.639999 496.398 9.408 496.398 22.784C496.398 26.176 496.91 29.248 497.742 31.936C505.486 29.056 514.766 31.744 514.766 41.152C514.766 42.368 514.638 43.648 514.255 44.928Z" fill="white"/>
<path d="M569.699 0.383999H575.715C573.091 0.383999 567.779 12.928 567.779 12.928L554.211 45.184H553.571L539.875 12.928C539.875 12.928 534.499 0.383999 531.875 0.383999H542.179C539.491 0.383999 544.803 12.928 544.803 12.928L556.003 39.36L567.139 12.928C567.139 12.928 572.387 0.383999 569.699 0.383999Z" fill="white"/>
<path d="M603.09 32.64C603.09 32.64 608.466 45.184 611.09 45.184H600.786C603.474 45.184 598.162 32.64 598.162 32.64L597.394 30.848H576.594L575.826 32.64C575.826 32.64 570.578 45.184 573.266 45.184H567.25C569.874 45.184 575.186 32.64 575.186 32.64L588.69 0.383999H589.394L603.09 32.64ZM576.85 30.208H597.138L586.962 6.272L576.85 30.208Z" fill="white"/>
</svg>
