<svg width="364" height="53" viewBox="0 0 364 53" fill="none" xmlns="http://www.w3.org/2000/svg">
<path d="M68.544 32.704C68.544 32.704 77.952 45.184 80.576 45.184H70.272C72.96 45.184 63.616 32.64 63.616 32.64L60.928 29.056C60.16 29.056 59.392 29.056 58.624 29.056H47.872V32.192C55.488 28.864 65.344 31.232 65.344 41.152C65.344 45.632 63.104 52.352 50.112 52.352C40.96 52.352 35.648 49.728 32.64 45.184C32.64 45.184 24.576 33.088 21.888 29.056C19.456 25.408 15.424 19.648 7.616 26.624V32.64C7.616 32.64 7.61598 45.184 10.304 45.184H0C2.624 45.184 2.624 32.896 2.688 32.704V12.928C2.624 12.736 2.624 0.447998 0 0.447998H10.304C7.61598 0.447998 7.616 12.992 7.616 12.992V25.984C7.68 25.856 7.744 25.792 7.808 25.728L21.184 12.992C21.184 12.992 34.24 0.447998 31.552 0.447998H37.568C34.944 0.447998 21.824 12.928 21.824 12.992L10.688 23.68C19.2 18.368 23.808 24.256 26.88 29.12C29.376 33.088 37.568 45.184 37.568 45.184C39.552 48.128 42.304 51.712 50.112 51.712C60.224 51.712 60.416 43.84 60.416 41.152C60.416 32.448 53.248 28.416 42.944 35.584V12.928C42.944 12.736 42.944 0.447998 40.32 0.447998H58.624C71.168 0.447998 79.68 5.824 79.68 14.784C79.68 21.952 74.176 26.88 65.408 28.48L68.544 32.704ZM47.872 28.416H58.624C68.032 28.416 74.304 23.232 74.304 14.784C74.304 6.272 68.032 1.088 58.624 1.088H47.872V28.416Z" fill="white"/>
<path d="M118.207 0.383999C115.583 0.383999 115.583 12.544 115.583 12.928V34.432C115.583 37.824 115.071 45.632 102.143 45.632C89.5995 45.632 85.1195 40.704 85.1195 34.432V12.928C85.0555 12.736 85.0555 0.383999 82.4315 0.383999H92.7355C90.0475 0.383999 90.0475 12.928 90.0475 12.928V34.432C90.0475 40.704 93.6315 44.992 102.143 44.992C111.039 44.992 114.879 41.152 114.879 34.432V12.928C114.879 12.928 114.879 0.383999 112.191 0.383999H118.207Z" fill="white"/>
<path d="M159.785 37.12V37.184H160.426C156.65 42.304 150.825 45.632 142.953 45.632C130.857 45.632 121.065 36.288 121.065 22.848C121.065 9.408 130.857 0 142.953 0C151.721 0 159.53 4.672 159.594 12.992C159.594 14.912 157.929 16.576 156.009 16.576C154.025 16.576 152.362 14.912 152.362 12.992C152.362 12.544 152.489 12.16 152.617 11.776C152.617 11.712 152.617 11.712 152.617 11.648C155.241 4.608 149.225 0.639999 142.953 0.639999C133.801 0.639999 126.441 9.408 126.441 22.848C126.441 36.224 134.057 43.84 144.297 43.84C150.121 43.84 155.497 41.856 159.785 37.12Z" fill="white"/>
<path d="M198.776 32.704C198.776 32.704 198.84 45.184 201.464 45.184H191.16C193.848 45.184 193.848 32.896 193.848 32.704V23.04H170.616V32.64C170.616 32.64 170.616 45.184 173.304 45.184H163C165.624 45.184 165.624 32.896 165.688 32.704V12.928C165.624 12.736 165.624 0.447998 163 0.447998H173.304C170.616 0.447998 170.616 12.992 170.616 12.992V22.4H193.848V12.928C193.848 12.736 193.848 0.447998 191.16 0.447998H201.464C198.84 0.447998 198.776 12.992 198.776 12.992V32.704Z" fill="white"/>
<path d="M287.118 22.848C287.118 35.904 277.838 45.184 266.19 45.632C264.782 49.152 261.198 52.352 253.07 52.352C245.006 52.352 240.398 49.728 237.39 45.184C237.39 45.184 229.326 33.088 226.638 29.056C224.206 25.408 220.174 19.648 212.366 26.624V32.64C212.366 32.64 212.366 45.184 215.054 45.184H204.75C207.374 45.184 207.374 32.896 207.438 32.704V12.928C207.374 12.736 207.374 0.447998 204.75 0.447998H215.054C212.366 0.447998 212.366 12.992 212.366 12.992V25.984C212.43 25.856 212.494 25.792 212.558 25.728L225.934 12.992C225.934 12.992 238.99 0.447998 236.302 0.447998H242.318C239.694 0.447998 226.574 12.928 226.574 12.992L215.438 23.68C223.95 18.368 228.558 24.256 231.63 29.12C234.126 33.088 242.318 45.184 242.318 45.184C244.302 48.128 246.606 51.712 253.07 51.712C258.894 51.712 260.942 48.448 261.646 45.376C251.214 43.776 243.214 34.944 243.214 22.848C243.214 9.408 253.07 0 265.166 0C277.326 0 287.118 9.408 287.118 22.848ZM250.126 32.64C252.302 39.04 256.654 43.264 261.838 44.608C262.03 43.2 262.03 41.984 262.03 41.216C262.03 34.176 257.102 30.336 250.126 32.64ZM266.446 44.928C275.022 44.224 281.742 35.648 281.742 22.784C281.742 9.344 274.382 0.639999 265.166 0.639999C256.014 0.639999 248.59 9.408 248.59 22.784C248.59 26.176 249.102 29.248 249.934 31.936C257.678 29.056 266.958 31.744 266.958 41.152C266.958 42.368 266.83 43.648 266.446 44.928Z" fill="white"/>
<path d="M321.89 0.383999H327.907C325.283 0.383999 319.97 12.928 319.97 12.928L306.402 45.184H305.762L292.066 12.928C292.066 12.928 286.69 0.383999 284.066 0.383999H294.371C291.683 0.383999 296.994 12.928 296.994 12.928L308.194 39.36L319.33 12.928C319.33 12.928 324.578 0.383999 321.89 0.383999Z" fill="white"/>
<path d="M355.282 32.64C355.282 32.64 360.658 45.184 363.282 45.184H352.978C355.666 45.184 350.353 32.64 350.353 32.64L349.585 30.848H328.785L328.017 32.64C328.017 32.64 322.769 45.184 325.457 45.184H319.441C322.065 45.184 327.377 32.64 327.377 32.64L340.882 0.383999H341.585L355.282 32.64ZM329.041 30.208H349.329L339.153 6.272L329.041 30.208Z" fill="white"/>
</svg>
