<svg width="235" height="46" viewBox="0 0 235 46" fill="none" xmlns="http://www.w3.org/2000/svg">
<path d="M35.84 32.64C35.84 32.64 41.216 45.184 43.84 45.184H33.536C36.224 45.184 30.912 32.64 30.912 32.64L30.144 30.848H9.344L8.576 32.64C8.576 32.64 3.328 45.184 6.016 45.184H0C2.624 45.184 7.936 32.64 7.936 32.64L21.44 0.383999H22.144L35.84 32.64ZM9.6 30.208H29.888L19.712 6.272L9.6 30.208Z" fill="white"/>
<path d="M79.251 39.808L78.355 45.184H44.371C46.995 45.184 46.995 32.896 47.059 32.704V12.928C46.995 12.736 46.995 0.383999 44.371 0.383999H54.675C51.987 0.383999 51.987 12.928 51.987 12.928V44.544H65.875C66.195 44.544 78.419 44.48 79.251 39.808Z" fill="white"/>
<path d="M105.653 0.383999H111.669C109.045 0.383999 101.173 12.928 101.173 12.928L94.1965 24.064V32.64C94.1965 32.64 94.2605 45.184 96.8845 45.184H86.5805C89.2685 45.184 89.2685 32.896 89.2685 32.704V27.328L80.2445 12.928C80.1805 12.864 72.2445 0.383999 69.6205 0.383999H79.9245C77.2365 0.383999 85.1725 12.928 85.1725 12.928L92.8525 25.152L100.468 12.928C100.468 12.928 108.341 0.383999 105.653 0.383999Z" fill="white"/>
<path d="M129.449 0C141.609 0 151.402 9.408 151.402 22.848C151.402 36.288 141.609 45.632 129.449 45.632C117.353 45.632 107.562 36.288 107.562 22.848C107.562 9.408 117.353 0 129.449 0ZM129.449 44.992C138.665 44.992 146.025 36.288 146.025 22.848C146.025 9.408 138.665 0.639999 129.449 0.639999C120.297 0.639999 112.938 9.408 112.938 22.848C112.938 36.288 120.297 44.992 129.449 44.992Z" fill="white"/>
<path d="M190.59 0.447998C187.966 0.447998 187.966 12.544 187.902 12.928V45.184H187.262L158.143 4.48V32.704C158.143 33.088 158.207 45.184 160.831 45.184H154.814C157.438 45.184 157.503 32.704 157.503 32.704V12.992C157.503 12.992 157.438 0.447998 154.814 0.447998H160.191L187.262 38.336V12.992C187.262 12.992 187.262 0.447998 184.574 0.447998H190.59Z" fill="white"/>
<path d="M226.84 32.64C226.84 32.64 232.216 45.184 234.84 45.184H224.536C227.224 45.184 221.912 32.64 221.912 32.64L221.144 30.848H200.344L199.576 32.64C199.576 32.64 194.328 45.184 197.016 45.184H191C193.624 45.184 198.936 32.64 198.936 32.64L212.44 0.383999H213.144L226.84 32.64ZM200.6 30.208H220.888L210.712 6.272L200.6 30.208Z" fill="white"/>
</svg>
