<svg xmlns="http://www.w3.org/2000/svg" version="1.1" xmlns:xlink="http://www.w3.org/1999/xlink" width="32" height="32"><svg width="32" height="32" viewBox="0 0 32 32" fill="none" xmlns="http://www.w3.org/2000/svg">
<circle cx="16" cy="16" r="16" fill="#010C13"></circle>
<path d="M8.61548 11.4507C8.92303 10.8385 9.55761 10.4182 10.2905 10.4182C10.4646 10.4182 10.6332 10.4419 10.7931 10.4863M10.7931 10.4863C11.3065 10.6287 11.7311 10.9839 11.9656 11.4507M10.7931 10.4863L10.9305 10.0265L12.1632 5.90107C12.6626 4.53035 13.0053 5.20605 13.2556 5.90107L14.8161 11.1971H22.931" stroke="white" stroke-width="0.7" stroke-linecap="round" stroke-linejoin="round"></path>
<path d="M25.5255 11.4509L23.8672 5.90121C23.6398 5.14437 23.1499 4.53049 22.6505 5.90121L21.3704 9.01649" stroke="white" stroke-width="0.7" stroke-linecap="round" stroke-linejoin="round"></path>
<path d="M13.7698 21.5059C13.7698 21.5059 15.2046 24.7997 15.905 24.7997H13.1548C13.8723 24.7997 12.4545 21.5059 12.4545 21.5059L12.2495 21.0353H6.69801L6.49303 21.5059C6.49303 21.5059 5.09234 24.7997 5.80977 24.7997H4.2041C4.90445 24.7997 6.32221 21.5059 6.32221 21.5059L9.92642 13.0361H10.1143L13.7698 21.5059ZM6.76633 20.8673H12.1812L9.46522 14.5822L6.76633 20.8673Z" fill="white"></path>
<path d="M24.485 21.7748C24.9633 22.5478 26.4152 24.7997 26.996 24.7997H24.2458C24.9633 24.7997 23.1184 21.6739 23.1184 21.6739C22.8451 21.2202 22.6231 20.8337 22.4523 20.5648C21.8544 19.5733 20.8466 18.0945 18.7627 19.9262V21.5059C18.7627 21.5059 18.7627 24.7997 19.4801 24.7997H16.7299C17.4303 24.7997 17.4303 21.5731 17.4474 21.5227V16.3299C17.4303 16.2795 17.4303 13.0529 16.7299 13.0529H19.4801C18.7627 13.0529 18.7627 16.3467 18.7627 16.3467V19.7413C18.7797 19.7245 18.7968 19.7077 18.8139 19.6909L22.3839 16.3467C22.3839 16.3467 25.8686 13.0529 25.1512 13.0529H26.7568C26.0565 13.0529 22.5548 16.3299 22.5548 16.3299L19.5655 19.1532C21.8544 17.7584 23.0843 19.3548 23.7675 20.5648C23.9384 20.8505 24.1946 21.2874 24.485 21.7748Z" fill="white"></path>
</svg><style>@media (prefers-color-scheme: light) { :root { filter: none; } }
@media (prefers-color-scheme: dark) { :root { filter: none; } }
</style></svg>