<svg xmlns="http://www.w3.org/2000/svg">

    <symbol id="logo-name" viewBox="0 0 235 46" fill="none" xmlns="http://www.w3.org/2000/svg">
        <path d="M35.84 32.64C35.84 32.64 41.216 45.184 43.84 45.184H33.536C36.224 45.184 30.912 32.64 30.912 32.64L30.144 30.848H9.344L8.576 32.64C8.576 32.64 3.328 45.184 6.016 45.184H0C2.624 45.184 7.936 32.64 7.936 32.64L21.44 0.383999H22.144L35.84 32.64ZM9.6 30.208H29.888L19.712 6.272L9.6 30.208Z" fill="white"/>
        <path d="M79.251 39.808L78.355 45.184H44.371C46.995 45.184 46.995 32.896 47.059 32.704V12.928C46.995 12.736 46.995 0.383999 44.371 0.383999H54.675C51.987 0.383999 51.987 12.928 51.987 12.928V44.544H65.875C66.195 44.544 78.419 44.48 79.251 39.808Z" fill="white"/>
        <path d="M105.653 0.383999H111.669C109.045 0.383999 101.173 12.928 101.173 12.928L94.1965 24.064V32.64C94.1965 32.64 94.2605 45.184 96.8845 45.184H86.5805C89.2685 45.184 89.2685 32.896 89.2685 32.704V27.328L80.2445 12.928C80.1805 12.864 72.2445 0.383999 69.6205 0.383999H79.9245C77.2365 0.383999 85.1725 12.928 85.1725 12.928L92.8525 25.152L100.468 12.928C100.468 12.928 108.341 0.383999 105.653 0.383999Z" fill="white"/>
        <path d="M129.449 0C141.609 0 151.402 9.408 151.402 22.848C151.402 36.288 141.609 45.632 129.449 45.632C117.353 45.632 107.562 36.288 107.562 22.848C107.562 9.408 117.353 0 129.449 0ZM129.449 44.992C138.665 44.992 146.025 36.288 146.025 22.848C146.025 9.408 138.665 0.639999 129.449 0.639999C120.297 0.639999 112.938 9.408 112.938 22.848C112.938 36.288 120.297 44.992 129.449 44.992Z" fill="white"/>
        <path d="M190.59 0.447998C187.966 0.447998 187.966 12.544 187.902 12.928V45.184H187.262L158.143 4.48V32.704C158.143 33.088 158.207 45.184 160.831 45.184H154.814C157.438 45.184 157.503 32.704 157.503 32.704V12.992C157.503 12.992 157.438 0.447998 154.814 0.447998H160.191L187.262 38.336V12.992C187.262 12.992 187.262 0.447998 184.574 0.447998H190.59Z" fill="white"/>
        <path d="M226.84 32.64C226.84 32.64 232.216 45.184 234.84 45.184H224.536C227.224 45.184 221.912 32.64 221.912 32.64L221.144 30.848H200.344L199.576 32.64C199.576 32.64 194.328 45.184 197.016 45.184H191C193.624 45.184 198.936 32.64 198.936 32.64L212.44 0.383999H213.144L226.84 32.64ZM200.6 30.208H220.888L210.712 6.272L200.6 30.208Z" fill="white"/>
    </symbol>

    <symbol id="logo-surname" viewBox="0 0 364 53" fill="none" xmlns="http://www.w3.org/2000/svg">
        <path d="M68.544 32.704C68.544 32.704 77.952 45.184 80.576 45.184H70.272C72.96 45.184 63.616 32.64 63.616 32.64L60.928 29.056C60.16 29.056 59.392 29.056 58.624 29.056H47.872V32.192C55.488 28.864 65.344 31.232 65.344 41.152C65.344 45.632 63.104 52.352 50.112 52.352C40.96 52.352 35.648 49.728 32.64 45.184C32.64 45.184 24.576 33.088 21.888 29.056C19.456 25.408 15.424 19.648 7.616 26.624V32.64C7.616 32.64 7.61598 45.184 10.304 45.184H0C2.624 45.184 2.624 32.896 2.688 32.704V12.928C2.624 12.736 2.624 0.447998 0 0.447998H10.304C7.61598 0.447998 7.616 12.992 7.616 12.992V25.984C7.68 25.856 7.744 25.792 7.808 25.728L21.184 12.992C21.184 12.992 34.24 0.447998 31.552 0.447998H37.568C34.944 0.447998 21.824 12.928 21.824 12.992L10.688 23.68C19.2 18.368 23.808 24.256 26.88 29.12C29.376 33.088 37.568 45.184 37.568 45.184C39.552 48.128 42.304 51.712 50.112 51.712C60.224 51.712 60.416 43.84 60.416 41.152C60.416 32.448 53.248 28.416 42.944 35.584V12.928C42.944 12.736 42.944 0.447998 40.32 0.447998H58.624C71.168 0.447998 79.68 5.824 79.68 14.784C79.68 21.952 74.176 26.88 65.408 28.48L68.544 32.704ZM47.872 28.416H58.624C68.032 28.416 74.304 23.232 74.304 14.784C74.304 6.272 68.032 1.088 58.624 1.088H47.872V28.416Z" fill="white"/>
        <path d="M118.207 0.383999C115.583 0.383999 115.583 12.544 115.583 12.928V34.432C115.583 37.824 115.071 45.632 102.143 45.632C89.5995 45.632 85.1195 40.704 85.1195 34.432V12.928C85.0555 12.736 85.0555 0.383999 82.4315 0.383999H92.7355C90.0475 0.383999 90.0475 12.928 90.0475 12.928V34.432C90.0475 40.704 93.6315 44.992 102.143 44.992C111.039 44.992 114.879 41.152 114.879 34.432V12.928C114.879 12.928 114.879 0.383999 112.191 0.383999H118.207Z" fill="white"/>
        <path d="M159.785 37.12V37.184H160.426C156.65 42.304 150.825 45.632 142.953 45.632C130.857 45.632 121.065 36.288 121.065 22.848C121.065 9.408 130.857 0 142.953 0C151.721 0 159.53 4.672 159.594 12.992C159.594 14.912 157.929 16.576 156.009 16.576C154.025 16.576 152.362 14.912 152.362 12.992C152.362 12.544 152.489 12.16 152.617 11.776C152.617 11.712 152.617 11.712 152.617 11.648C155.241 4.608 149.225 0.639999 142.953 0.639999C133.801 0.639999 126.441 9.408 126.441 22.848C126.441 36.224 134.057 43.84 144.297 43.84C150.121 43.84 155.497 41.856 159.785 37.12Z" fill="white"/>
        <path d="M198.776 32.704C198.776 32.704 198.84 45.184 201.464 45.184H191.16C193.848 45.184 193.848 32.896 193.848 32.704V23.04H170.616V32.64C170.616 32.64 170.616 45.184 173.304 45.184H163C165.624 45.184 165.624 32.896 165.688 32.704V12.928C165.624 12.736 165.624 0.447998 163 0.447998H173.304C170.616 0.447998 170.616 12.992 170.616 12.992V22.4H193.848V12.928C193.848 12.736 193.848 0.447998 191.16 0.447998H201.464C198.84 0.447998 198.776 12.992 198.776 12.992V32.704Z" fill="white"/>
        <path d="M287.118 22.848C287.118 35.904 277.838 45.184 266.19 45.632C264.782 49.152 261.198 52.352 253.07 52.352C245.006 52.352 240.398 49.728 237.39 45.184C237.39 45.184 229.326 33.088 226.638 29.056C224.206 25.408 220.174 19.648 212.366 26.624V32.64C212.366 32.64 212.366 45.184 215.054 45.184H204.75C207.374 45.184 207.374 32.896 207.438 32.704V12.928C207.374 12.736 207.374 0.447998 204.75 0.447998H215.054C212.366 0.447998 212.366 12.992 212.366 12.992V25.984C212.43 25.856 212.494 25.792 212.558 25.728L225.934 12.992C225.934 12.992 238.99 0.447998 236.302 0.447998H242.318C239.694 0.447998 226.574 12.928 226.574 12.992L215.438 23.68C223.95 18.368 228.558 24.256 231.63 29.12C234.126 33.088 242.318 45.184 242.318 45.184C244.302 48.128 246.606 51.712 253.07 51.712C258.894 51.712 260.942 48.448 261.646 45.376C251.214 43.776 243.214 34.944 243.214 22.848C243.214 9.408 253.07 0 265.166 0C277.326 0 287.118 9.408 287.118 22.848ZM250.126 32.64C252.302 39.04 256.654 43.264 261.838 44.608C262.03 43.2 262.03 41.984 262.03 41.216C262.03 34.176 257.102 30.336 250.126 32.64ZM266.446 44.928C275.022 44.224 281.742 35.648 281.742 22.784C281.742 9.344 274.382 0.639999 265.166 0.639999C256.014 0.639999 248.59 9.408 248.59 22.784C248.59 26.176 249.102 29.248 249.934 31.936C257.678 29.056 266.958 31.744 266.958 41.152C266.958 42.368 266.83 43.648 266.446 44.928Z" fill="white"/>
        <path d="M321.89 0.383999H327.907C325.283 0.383999 319.97 12.928 319.97 12.928L306.402 45.184H305.762L292.066 12.928C292.066 12.928 286.69 0.383999 284.066 0.383999H294.371C291.683 0.383999 296.994 12.928 296.994 12.928L308.194 39.36L319.33 12.928C319.33 12.928 324.578 0.383999 321.89 0.383999Z" fill="white"/>
        <path d="M355.282 32.64C355.282 32.64 360.658 45.184 363.282 45.184H352.978C355.666 45.184 350.353 32.64 350.353 32.64L349.585 30.848H328.785L328.017 32.64C328.017 32.64 322.769 45.184 325.457 45.184H319.441C322.065 45.184 327.377 32.64 327.377 32.64L340.882 0.383999H341.585L355.282 32.64ZM329.041 30.208H349.329L339.153 6.272L329.041 30.208Z" fill="white"/>
    </symbol>

    <symbol id="arrow-circle-down-icon" viewBox="0 0 24 24" fill="none" xmlns="http://www.w3.org/2000/svg">
        <path d="M12 2C6.49 2 2 6.49 2 12C2 17.51 6.49 22 12 22C17.51 22 22 17.51 22 12C22 6.49 17.51 2 12 2ZM16.06 11.27L12.53 14.8C12.38 14.95 12.19 15.02 12 15.02C11.81 15.02 11.62 14.95 11.47 14.8L7.94 11.27C7.65 10.98 7.65 10.5 7.94 10.21C8.23 9.92 8.71 9.92 9 10.21L12 13.21L15 10.21C15.29 9.92 15.77 9.92 16.06 10.21C16.35 10.5 16.35 10.97 16.06 11.27Z" fill="currentColor"/>
    </symbol>

    <symbol id="arrow-circle-icon" viewBox="0 0 22 22" fill="none" xmlns="http://www.w3.org/2000/svg">
        <path d="M11.0001 20.1666C5.93747 20.1666 1.83341 16.0626 1.83342 11C1.83342 5.93737 5.93747 1.83331 11.0001 1.83331C16.0627 1.83331 20.1667 5.93737 20.1667 11C20.1667 16.0626 16.0627 20.1666 11.0001 20.1666Z" stroke="currentColor" stroke-width="1.5" stroke-miterlimit="10" stroke-linecap="round" stroke-linejoin="round"/>
        <path d="M14.2358 9.84497L11 13.0716L7.76418 9.84497" stroke="currentColor" stroke-width="1.5" stroke-linecap="round" stroke-linejoin="round"/>
    </symbol>

    <symbol id="arrow-down-icon" viewBox="0 0 22 22" fill="none" xmlns="http://www.w3.org/2000/svg">
        <path d="M7.76416 9.84497L11 13.0716L14.2358 9.84497" stroke="currentColor" stroke-width="1.5" stroke-linecap="round" stroke-linejoin="round"/>
    </symbol>

    <symbol id="burger-menu-icon" viewBox="0 0 24 24" fill="none" xmlns="http://www.w3.org/2000/svg">
        <path d="M14.5 15.75C14.5 16.4404 15.0596 17 15.75 17C16.4404 17 17 16.4404 17 15.75C17 15.0596 16.4404 14.5 15.75 14.5C15.0596 14.5 14.5 15.0596 14.5 15.75Z" fill="white"/>
        <path d="M7 15.75C7 16.4404 7.55964 17 8.25 17C8.94036 17 9.5 16.4404 9.5 15.75C9.5 15.0596 8.94036 14.5 8.25 14.5C7.55964 14.5 7 15.0596 7 15.75Z" fill="white"/>
        <path d="M14.5 8.25C14.5 8.94036 15.0596 9.5 15.75 9.5C16.4404 9.5 17 8.94036 17 8.25C17 7.55964 16.4404 7 15.75 7C15.0596 7 14.5 7.55964 14.5 8.25Z" fill="white"/>
        <path d="M7 8.25C7 8.94036 7.55964 9.5 8.25 9.5C8.94036 9.5 9.5 8.94036 9.5 8.25C9.5 7.55964 8.94036 7 8.25 7C7.55964 7 7 7.55964 7 8.25Z" fill="white"/>
        <path d="M14.5 15.75C14.5 16.4404 15.0596 17 15.75 17C16.4404 17 17 16.4404 17 15.75C17 15.0596 16.4404 14.5 15.75 14.5C15.0596 14.5 14.5 15.0596 14.5 15.75Z" stroke="white" stroke-width="3" stroke-linecap="round" stroke-linejoin="round"/>
        <path d="M7 15.75C7 16.4404 7.55964 17 8.25 17C8.94036 17 9.5 16.4404 9.5 15.75C9.5 15.0596 8.94036 14.5 8.25 14.5C7.55964 14.5 7 15.0596 7 15.75Z" stroke="white" stroke-width="3" stroke-linecap="round" stroke-linejoin="round"/>
        <path d="M14.5 8.25C14.5 8.94036 15.0596 9.5 15.75 9.5C16.4404 9.5 17 8.94036 17 8.25C17 7.55964 16.4404 7 15.75 7C15.0596 7 14.5 7.55964 14.5 8.25Z" stroke="white" stroke-width="3" stroke-linecap="round" stroke-linejoin="round"/>
        <path d="M7 8.25C7 8.94036 7.55964 9.5 8.25 9.5C8.94036 9.5 9.5 8.94036 9.5 8.25C9.5 7.55964 8.94036 7 8.25 7C7.55964 7 7 7.55964 7 8.25Z" stroke="white" stroke-width="3" stroke-linecap="round" stroke-linejoin="round"/>
    </symbol>
    
    <symbol id="close-icon" viewBox="0 0 24 24" fill="none" xmlns="http://www.w3.org/2000/svg">
        <path d="M6 18L18 6M6 6L18 18" stroke="currentColor" stroke-width="1.5" stroke-linecap="round" stroke-linejoin="round"/>
    </symbol>

    <symbol id="github-icon" viewBox="0 0 28 28" fill="none" xmlns="http://www.w3.org/2000/svg">
        <circle cx="14" cy="14" r="14" fill="white"/>
        <path fill-rule="evenodd" clip-rule="evenodd" d="M14 0C6.265 0 0 6.265 0 14C0 20.195 4.0075 25.4275 9.5725 27.2825C10.2725 27.405 10.535 26.985 10.535 26.6175C10.535 26.285 10.5175 25.1825 10.5175 24.01C7 24.6575 6.09 23.1525 5.81 22.365C5.6525 21.9625 4.97 20.72 4.375 20.3875C3.885 20.125 3.185 19.4775 4.3575 19.46C5.46 19.4425 6.2475 20.475 6.51 20.895C7.77 23.0125 9.7825 22.4175 10.5875 22.05C10.71 21.14 11.0775 20.5275 11.48 20.1775C8.365 19.8275 5.11 18.62 5.11 13.265C5.11 11.7425 5.6525 10.4825 6.545 9.5025C6.405 9.1525 5.915 7.7175 6.685 5.7925C6.685 5.7925 7.8575 5.425 10.535 7.2275C11.655 6.9125 12.845 6.755 14.035 6.755C15.225 6.755 16.415 6.9125 17.535 7.2275C20.2125 5.4075 21.385 5.7925 21.385 5.7925C22.155 7.7175 21.665 9.1525 21.525 9.5025C22.4175 10.4825 22.96 11.725 22.96 13.265C22.96 18.6375 19.6875 19.8275 16.5725 20.1775C17.08 20.615 17.5175 21.455 17.5175 22.7675C17.5175 24.64 17.5 26.145 17.5 26.6175C17.5 26.985 17.7625 27.4225 18.4625 27.2825C23.9925 25.4275 28 20.1775 28 14C28 6.265 21.735 0 14 0Z" fill="#010C13"/>
    </symbol>

    <symbol id="instagram-icon" viewBox="0 0 32 32" fill="none" xmlns="http://www.w3.org/2000/svg">
        <rect x="2" y="2" width="28" height="28" rx="6" fill="url(#paint0_radial_2010_559)"/>
        <rect x="2" y="2" width="28" height="28" rx="6" fill="url(#paint1_radial_2010_559)"/>
        <rect x="2" y="2" width="28" height="28" rx="6" fill="url(#paint2_radial_2010_559)"/>
        <path d="M23 10.5C23 11.3284 22.3284 12 21.5 12C20.6716 12 20 11.3284 20 10.5C20 9.67157 20.6716 9 21.5 9C22.3284 9 23 9.67157 23 10.5Z" fill="white"/>
        <path fill-rule="evenodd" clip-rule="evenodd" d="M16 21C18.7614 21 21 18.7614 21 16C21 13.2386 18.7614 11 16 11C13.2386 11 11 13.2386 11 16C11 18.7614 13.2386 21 16 21ZM16 19C17.6569 19 19 17.6569 19 16C19 14.3431 17.6569 13 16 13C14.3431 13 13 14.3431 13 16C13 17.6569 14.3431 19 16 19Z" fill="white"/>
        <path fill-rule="evenodd" clip-rule="evenodd" d="M6 15.6C6 12.2397 6 10.5595 6.65396 9.27606C7.2292 8.14708 8.14708 7.2292 9.27606 6.65396C10.5595 6 12.2397 6 15.6 6H16.4C19.7603 6 21.4405 6 22.7239 6.65396C23.8529 7.2292 24.7708 8.14708 25.346 9.27606C26 10.5595 26 12.2397 26 15.6V16.4C26 19.7603 26 21.4405 25.346 22.7239C24.7708 23.8529 23.8529 24.7708 22.7239 25.346C21.4405 26 19.7603 26 16.4 26H15.6C12.2397 26 10.5595 26 9.27606 25.346C8.14708 24.7708 7.2292 23.8529 6.65396 22.7239C6 21.4405 6 19.7603 6 16.4V15.6ZM15.6 8H16.4C18.1132 8 19.2777 8.00156 20.1779 8.0751C21.0548 8.14674 21.5032 8.27659 21.816 8.43597C22.5686 8.81947 23.1805 9.43139 23.564 10.184C23.7234 10.4968 23.8533 10.9452 23.9249 11.8221C23.9984 12.7223 24 13.8868 24 15.6V16.4C24 18.1132 23.9984 19.2777 23.9249 20.1779C23.8533 21.0548 23.7234 21.5032 23.564 21.816C23.1805 22.5686 22.5686 23.1805 21.816 23.564C21.5032 23.7234 21.0548 23.8533 20.1779 23.9249C19.2777 23.9984 18.1132 24 16.4 24H15.6C13.8868 24 12.7223 23.9984 11.8221 23.9249C10.9452 23.8533 10.4968 23.7234 10.184 23.564C9.43139 23.1805 8.81947 22.5686 8.43597 21.816C8.27659 21.5032 8.14674 21.0548 8.0751 20.1779C8.00156 19.2777 8 18.1132 8 16.4V15.6C8 13.8868 8.00156 12.7223 8.0751 11.8221C8.14674 10.9452 8.27659 10.4968 8.43597 10.184C8.81947 9.43139 9.43139 8.81947 10.184 8.43597C10.4968 8.27659 10.9452 8.14674 11.8221 8.0751C12.7223 8.00156 13.8868 8 15.6 8Z" fill="white"/>
        <defs>
        <radialGradient id="paint0_radial_2010_559" cx="0" cy="0" r="1" gradientUnits="userSpaceOnUse" gradientTransform="translate(12 23) rotate(-55.3758) scale(25.5196)">
        <stop stop-color="#B13589"/>
        <stop offset="0.79309" stop-color="#C62F94"/>
        <stop offset="1" stop-color="#8A3AC8"/>
        </radialGradient>
        <radialGradient id="paint1_radial_2010_559" cx="0" cy="0" r="1" gradientUnits="userSpaceOnUse" gradientTransform="translate(11 31) rotate(-65.1363) scale(22.5942)">
        <stop stop-color="#E0E8B7"/>
        <stop offset="0.444662" stop-color="#FB8A2E"/>
        <stop offset="0.71474" stop-color="#E2425C"/>
        <stop offset="1" stop-color="#E2425C" stop-opacity="0"/>
        </radialGradient>
        <radialGradient id="paint2_radial_2010_559" cx="0" cy="0" r="1" gradientUnits="userSpaceOnUse" gradientTransform="translate(0.500002 3) rotate(-8.1301) scale(38.8909 8.31836)">
        <stop offset="0.156701" stop-color="#406ADC"/>
        <stop offset="0.467799" stop-color="#6A45BE"/>
        <stop offset="1" stop-color="#6A45BE" stop-opacity="0"/>
        </radialGradient>
        </defs>
    </symbol>

    <symbol id="linkedin-icon" viewBox="0 0 32 32" fill="none" xmlns="http://www.w3.org/2000/svg">
        <rect x="2" y="2" width="28" height="28" rx="14" fill="#1275B1"/>
        <path d="M12.6186 9.69215C12.6186 10.6267 11.8085 11.3843 10.8093 11.3843C9.81004 11.3843 9 10.6267 9 9.69215C9 8.7576 9.81004 8 10.8093 8C11.8085 8 12.6186 8.7576 12.6186 9.69215Z" fill="white"/>
        <path d="M9.24742 12.6281H12.3402V22H9.24742V12.6281Z" fill="white"/>
        <path d="M17.3196 12.6281H14.2268V22H17.3196C17.3196 22 17.3196 19.0496 17.3196 17.2049C17.3196 16.0976 17.6977 14.9855 19.2062 14.9855C20.911 14.9855 20.9008 16.4345 20.8928 17.5571C20.8824 19.0244 20.9072 20.5219 20.9072 22H24V17.0537C23.9738 13.8954 23.1508 12.4401 20.4433 12.4401C18.8354 12.4401 17.8387 13.1701 17.3196 13.8305V12.6281Z" fill="white"/>
    </symbol>

    <symbol id="logo-part-1" viewBox="0 0 30 12" fill="none" xmlns="http://www.w3.org/2000/svg">
        <path d="M18.7564 2.0395C17.489 1.68792 16.1534 1.5 14.7738 1.5C8.96594 1.5 3.93738 4.83022 1.50024 9.68191" stroke="white" stroke-width="3" stroke-linecap="round" stroke-linejoin="round"/>
        <path d="M18.7563 2.03955C22.8243 3.16805 26.189 5.98276 28.0473 9.68196" stroke="white" stroke-width="3" stroke-linecap="round" stroke-linejoin="round"/>
    </symbol>

    <symbol id="logo-part-2" viewBox="0 0 100 52" fill="none" xmlns="http://www.w3.org/2000/svg">
        <path d="M97.6843 49.7617H33.3799L21.0137 7.795C19.0305 2.28751 16.3146 -3.06698 12.3574 7.795L2.58912 40.4863L1.50049 44.1296" stroke="white" stroke-width="3" stroke-linecap="round" stroke-linejoin="round"/>
    </symbol>

    <symbol id="logo-part-3" viewBox="0 0 36 54" fill="none" xmlns="http://www.w3.org/2000/svg">
        <path d="M34.4269 51.9259L21.2864 7.94884C19.4837 1.95143 15.6018 -2.91309 11.6446 7.94884L1.50049 32.6351" stroke="white" stroke-width="3" stroke-linecap="round" stroke-linejoin="round"/>
    </symbol>

    <symbol id="telegram-icon" viewBox="0 0 32 32" fill="none" xmlns="http://www.w3.org/2000/svg">
        <circle cx="16" cy="16" r="14" fill="url(#paint0_linear_2010_553)"/>
        <path d="M22.9866 10.2088C23.1112 9.40332 22.3454 8.76755 21.6292 9.082L7.36482 15.3448C6.85123 15.5703 6.8888 16.3483 7.42147 16.5179L10.3631 17.4547C10.9246 17.6335 11.5325 17.541 12.0228 17.2023L18.655 12.6203C18.855 12.4821 19.073 12.7665 18.9021 12.9426L14.1281 17.8646C13.665 18.3421 13.7569 19.1512 14.314 19.5005L19.659 22.8523C20.2585 23.2282 21.0297 22.8506 21.1418 22.1261L22.9866 10.2088Z" fill="white"/>
        <defs>
        <linearGradient id="paint0_linear_2010_553" x1="16" y1="2" x2="16" y2="30" gradientUnits="userSpaceOnUse">
        <stop stop-color="#37BBFE"/>
        <stop offset="1" stop-color="#007DBB"/>
        </linearGradient>
        </defs>
    </symbol>

    <symbol id="icon-error" viewBox="0 0 44 44" fill="none" xmlns="http://www.w3.org/2000/svg">
        <path fill-rule="evenodd" clip-rule="evenodd" d="M22 5.5V5.5C31.1135 5.5 38.5 12.8865 38.5 22V22C38.5 31.1135 31.1135 38.5 22 38.5V38.5C12.8865 38.5 5.5 31.1135 5.5 22V22C5.5 12.8865 12.8865 5.5 22 5.5Z" stroke="#FC5A5A" stroke-width="2" stroke-linecap="round" stroke-linejoin="round"/>
        <path d="M22.0002 22.9167V13.75" stroke="#FC5A5A" stroke-width="2" stroke-linecap="round" stroke-linejoin="round"/>
        <path d="M21.9983 29.3333C21.7453 29.3333 21.54 29.5387 21.5418 29.7917C21.5418 30.0447 21.7472 30.25 22.0002 30.25C22.2532 30.25 22.4585 30.0447 22.4585 29.7917C22.4585 29.5387 22.2532 29.3333 21.9983 29.3333" stroke="#FC5A5A" stroke-width="2" stroke-linecap="round" stroke-linejoin="round"/>
    </symbol>

    <symbol id="icon-success" viewBox="0 0 44 44" fill="none" xmlns="http://www.w3.org/2000/svg">
        <path d="M29.8478 16.9022C29.9757 17.0299 30.0771 17.1815 30.1463 17.3485C30.2155 17.5154 30.2511 17.6943 30.2511 17.875C30.2511 18.0557 30.2155 18.2346 30.1463 18.4015C30.0771 18.5685 29.9757 18.7201 29.8478 18.8478L20.2228 28.4728C20.0951 28.6007 19.9435 28.7021 19.7766 28.7713C19.6096 28.8405 19.4307 28.8761 19.25 28.8761C19.0693 28.8761 18.8904 28.8405 18.7235 28.7713C18.5565 28.7021 18.4049 28.6007 18.2772 28.4728L14.1522 24.3478C13.8942 24.0898 13.7492 23.7399 13.7492 23.375C13.7492 23.0101 13.8942 22.6602 14.1522 22.4022C14.4102 22.1442 14.7601 21.9992 15.125 21.9992C15.4899 21.9992 15.8398 22.1442 16.0978 22.4022L19.25 25.5561L27.9022 16.9022C28.0299 16.7743 28.1815 16.6729 28.3485 16.6037C28.5154 16.5345 28.6943 16.4989 28.875 16.4989C29.0557 16.4989 29.2346 16.5345 29.4016 16.6037C29.5685 16.6729 29.7201 16.7743 29.8478 16.9022ZM39.875 22C39.875 25.5353 38.8267 28.9913 36.8625 31.9308C34.8984 34.8703 32.1067 37.1614 28.8405 38.5143C25.5742 39.8673 21.9802 40.2212 18.5128 39.5315C15.0454 38.8418 11.8603 37.1394 9.36047 34.6395C6.86061 32.1397 5.15818 28.9547 4.46847 25.4872C3.77876 22.0198 4.13274 18.4258 5.48566 15.1595C6.83858 11.8933 9.12966 9.10161 12.0692 7.13748C15.0087 5.17335 18.4647 4.125 22 4.125C26.7392 4.13 31.2829 6.01487 34.634 9.36599C37.9851 12.7171 39.87 17.2608 39.875 22ZM37.125 22C37.125 19.0086 36.2379 16.0843 34.576 13.597C32.914 11.1097 30.5518 9.1711 27.7881 8.02632C25.0244 6.88155 21.9832 6.58202 19.0493 7.16562C16.1153 7.74922 13.4203 9.18974 11.305 11.305C9.18975 13.4203 7.74923 16.1153 7.16563 19.0493C6.58203 21.9832 6.88155 25.0244 8.02633 27.7881C9.17111 30.5518 11.1097 32.914 13.597 34.576C16.0843 36.2379 19.0086 37.125 22 37.125C26.01 37.1204 29.8545 35.5255 32.69 32.69C35.5255 29.8545 37.1205 26.01 37.125 22Z" fill="#40BB71"/>
    </symbol>

</svg>
